<svg xmlns="http://www.w3.org/2000/svg" xmlns:xlink="http://www.w3.org/1999/xlink" width="50" zoomAndPan="magnify" viewBox="0 0 37.5 37.499999" height="50" preserveAspectRatio="xMidYMid meet" version="1.0"><defs><g/><clipPath id="d25641ac8d"><path d="M 1.574219 0 L 37.007812 0 L 37.007812 36 L 1.574219 36 Z M 1.574219 0 " clip-rule="nonzero"/></clipPath><clipPath id="a08c6a5cdf"><path d="M 0 1.507812 L 36 1.507812 L 36 37.007812 L 0 37.007812 Z M 0 1.507812 " clip-rule="nonzero"/></clipPath></defs><g clip-path="url(#d25641ac8d)"><path fill="#7efee0" d="M 19.574219 0 C 9.632812 0 1.578125 8.058594 1.578125 18 C 1.578125 27.941406 9.632812 36 19.574219 36 C 29.515625 36 37.574219 27.941406 37.574219 18 C 37.574219 8.058594 29.515625 0 19.574219 0 " fill-opacity="1" fill-rule="nonzero"/></g><g clip-path="url(#a08c6a5cdf)"><path fill="#1c1c1c" d="M 18 1.511719 C 8.058594 1.511719 0 9.566406 0 19.507812 C 0 29.449219 8.058594 37.507812 18 37.507812 C 27.941406 37.507812 36 29.449219 36 19.507812 C 36 9.566406 27.941406 1.511719 18 1.511719 " fill-opacity="1" fill-rule="nonzero"/></g><g fill="#7efee0" fill-opacity="1"><g transform="translate(7.655788, 29.258362)"><g><path d="M 7.078125 -22.050781 L 10.230469 -22.050781 L 6.871094 0 L 3.628906 0 L 0.269531 -22.050781 L 3.421875 -22.050781 L 5.039062 -9.929688 L 5.160156 -9 L 5.339844 -9 L 5.460938 -9.929688 Z M 7.078125 -22.050781 "/></g></g></g><g fill="#7efee0" fill-opacity="1"><g transform="translate(18.749999, 33.449996)"><g><path d="M 1.199219 0 L 1.199219 -22.050781 L 4.050781 -22.050781 C 5.96875 -22.050781 7.46875 -21.691406 8.460938 -20.761719 C 9.449219 -19.828125 9.960938 -18.390625 9.960938 -16.199219 C 9.960938 -15.148438 9.871094 -14.371094 9.539062 -13.648438 C 9.210938 -12.929688 8.699219 -12.328125 7.949219 -11.640625 C 8.761719 -11.191406 9.359375 -10.351562 9.839844 -8.941406 C 10.078125 -8.25 10.199219 -7.351562 10.199219 -6.238281 C 10.199219 -4.589844 9.898438 -3.121094 9.148438 -1.980469 C 8.398438 -0.839844 7.109375 -0.0898438 5.191406 0 Z M 4.441406 -12.960938 C 4.710938 -12.960938 5.339844 -12.929688 5.878906 -13.289062 C 6.421875 -13.648438 6.839844 -14.371094 6.839844 -15.898438 C 6.839844 -17.429688 6.421875 -18.148438 5.878906 -18.511719 C 5.339844 -18.871094 4.710938 -18.839844 4.441406 -18.839844 Z M 4.441406 -3.210938 C 4.710938 -3.210938 5.339844 -3.148438 5.878906 -3.539062 C 6.421875 -3.929688 6.839844 -4.800781 6.839844 -6.601562 C 6.839844 -8.398438 6.421875 -9.269531 5.878906 -9.660156 C 5.339844 -10.050781 4.710938 -9.988281 4.441406 -9.988281 Z M 4.441406 -3.210938 "/></g></g></g></svg>